<svg width="22" height="22" viewBox="0 0 22 22" fill="none" xmlns="http://www.w3.org/2000/svg">
<path fill-rule="evenodd" clip-rule="evenodd" d="M20.706 3.1393C20.8271 3.0183 20.9232 2.87462 20.9889 2.71647C21.0545 2.55832 21.0883 2.38879 21.0884 2.21757C21.0885 2.04634 21.0549 1.87678 20.9895 1.71854C20.9241 1.56031 20.8281 1.41652 20.7071 1.29537C20.5861 1.17422 20.4424 1.07809 20.2843 1.01247C20.1261 0.946846 19.9566 0.913016 19.7854 0.912911C19.6141 0.912806 19.4446 0.946427 19.2863 1.01185C19.1281 1.07728 18.9843 1.17323 18.8632 1.29423L11.0001 9.1573L3.1393 1.29423C2.89463 1.04956 2.56279 0.912109 2.21677 0.912109C1.87075 0.912109 1.53891 1.04956 1.29424 1.29423C1.04956 1.53891 0.912109 1.87075 0.912109 2.21677C0.912109 2.56279 1.04956 2.89463 1.29424 3.1393L9.1573 11.0001L1.29424 18.8609C1.17309 18.9821 1.07699 19.1259 1.01142 19.2842C0.945855 19.4425 0.912109 19.6121 0.912109 19.7834C0.912109 19.9548 0.945855 20.1244 1.01142 20.2827C1.07699 20.441 1.17309 20.5848 1.29424 20.706C1.53891 20.9506 1.87075 21.0881 2.21677 21.0881C2.3881 21.0881 2.55775 21.0543 2.71604 20.9888C2.87433 20.9232 3.01815 20.8271 3.1393 20.706L11.0001 12.8429L18.8632 20.706C19.1078 20.9503 19.4396 21.0875 19.7854 21.0873C20.1312 21.0871 20.4627 20.9495 20.7071 20.7048C20.9515 20.4602 21.0886 20.1284 21.0884 19.7826C21.0882 19.4368 20.9506 19.1053 20.706 18.8609L12.8429 11.0001L20.706 3.1393Z" fill="black"/>
</svg>
